<svg xmlns="http://www.w3.org/2000/svg" viewBox="0 0 1000 324" fill="white">
  <path d="M651.19,0.03h-99.14c-30.74,0-53.87,8.46-67.45,39.44L353.54,320.53h119.12c0,0,15.21-40.05,18.66-48.82c10.21,0,100.85,0.14,113.77,0.14c2.64,11.36,10.77,48.68,10.77,48.68h105.19L651.19,0.03L651.19,0.03z M526.86,207.92c7.33-18.73,35.32-91.02,35.32-91.02c-0.52,0.86,7.27-18.84,11.75-31.04l6,27.85c0,0,16.91,77.59,20.47,94.21C573.25,207.92,552.83,207.92,526.86,207.92L526.86,207.92zM234.72,214.21l-56.38-214.18H58.58L2.48,320.53h104.5l7.84-38.71h89.77l7.84,38.71h104.5L234.72,214.21L234.72,214.21z M138.23,207.92l37.05-182.32l37.05,182.32H138.23L138.23,207.92z M834.66,0.03h-89.77l-89.77,320.5h89.77l89.77-320.5L834.66,0.03L834.66,0.03z M997.13,0.03h-117.7c-30.74,0-53.87,8.46-67.45,39.44L680.92,320.53h119.12c0,0,15.21-40.05,18.66-48.82c10.21,0,100.85,0.14,113.77,0.14c2.64,11.36,10.77,48.68,10.77,48.68h105.19L997.13,0.03L997.13,0.03z M872.8,207.92c7.33-18.73,35.32-91.02,35.32-91.02c-0.52,0.86,7.27-18.84,11.75-31.04l6,27.85c0,0,16.91,77.59,20.47,94.21C919.19,207.92,898.77,207.92,872.8,207.92L872.8,207.92z"/>
</svg> 